
      <svg data-logo="logo" xmlns="http://www.w3.org/2000/svg" viewBox="0 0 156 42">
        <g id="logogram" transform="translate(0, 1) rotate(0) "><path d="M24 0H16V12.0632C15.9663 14.2434 14.1885 16 12.0005 16H0V24H8.68629C10.808 24 12.8429 23.1571 14.3431 21.6569L21.6569 14.3431C23.1571 12.8429 24 10.808 24 8.68629V0Z" fill="url(#paint0_linear_7697_8782)"/><path d="M16 40H24V27.9368C24.0337 25.7566 25.8115 24 27.9995 24H40V16H31.3137C29.192 16 27.1571 16.8429 25.6569 18.3431L18.3431 25.6569C16.8429 27.1571 16 29.192 16 31.3137V40Z" fill="url(#paint1_linear_7697_8782)"/></g>
        <g id="logotype" transform="translate(46, 8)"><path fill="1e293b" d="M7.05 26L7.05 22.36L20.91 5.38L7.44 5.38L7.44 1.15L26.65 1.15L26.65 4.79L13.25 21.77L26.76 21.77L26.76 26L7.05 26ZM38.17 26.35L38.17 26.35Q35.96 26.35 34.18 25.60Q32.39 24.84 31.13 23.53Q29.87 22.22 29.19 20.52Q28.51 18.82 28.51 16.93L28.51 16.93Q28.51 14.31 29.68 12.14Q30.85 9.97 33.04 8.66Q35.23 7.34 38.20 7.34L38.20 7.34Q41.21 7.34 43.35 8.66Q45.48 9.97 46.62 12.12Q47.76 14.27 47.76 16.76L47.76 16.76Q47.76 17.18 47.72 17.62Q47.69 18.05 47.65 18.34L47.65 18.34L33.48 18.34Q33.62 19.73 34.30 20.79Q34.98 21.84 36.05 22.38Q37.12 22.92 38.34 22.92L38.34 22.92Q39.74 22.92 40.98 22.24Q42.23 21.55 42.68 20.43L42.68 20.43L46.71 21.55Q46.04 22.95 44.80 24.04Q43.56 25.13 41.88 25.74Q40.20 26.35 38.17 26.35ZM33.37 15.36L33.37 15.36L42.96 15.36Q42.82 13.96 42.17 12.93Q41.53 11.89 40.48 11.32Q39.43 10.74 38.13 10.74L38.13 10.74Q36.87 10.74 35.84 11.32Q34.81 11.89 34.16 12.93Q33.51 13.96 33.37 15.36ZM67.25 14.55L67.25 26L62.56 26L62.56 15.71Q62.56 13.50 61.79 12.49Q61.02 11.47 59.66 11.47L59.66 11.47Q58.71 11.47 57.75 11.96Q56.79 12.45 56.02 13.31Q55.25 14.17 54.90 15.29L54.90 15.29L54.90 26L50.21 26L50.21 7.66L54.44 7.66L54.44 11.05Q55.14 9.86 56.23 9.04Q57.31 8.22 58.73 7.78Q60.15 7.34 61.72 7.34L61.72 7.34Q63.44 7.34 64.54 7.96Q65.64 8.57 66.22 9.60Q66.80 10.63 67.02 11.93Q67.25 13.22 67.25 14.55L67.25 14.55ZM75.62 26L70.93 26L70.93 7.66L75.62 7.66L75.62 26ZM75.62 5.10L70.93 5.10L70.93 0.45L75.62 0.45L75.62 5.10ZM89.48 21.34L90.42 25.05Q89.83 25.30 88.98 25.61Q88.15 25.93 87.18 26.12Q86.22 26.32 85.24 26.32L85.24 26.32Q83.95 26.32 82.86 25.86Q81.78 25.41 81.13 24.41Q80.48 23.41 80.48 21.80L80.48 21.80L80.48 11.26L78.06 11.26L78.06 7.66L80.48 7.66L80.48 1.71L85.17 1.71L85.17 7.66L89.02 7.66L89.02 11.26L85.17 11.26L85.17 20.23Q85.20 21.17 85.70 21.59Q86.19 22.01 86.92 22.01L86.92 22.01Q87.66 22.01 88.36 21.77Q89.06 21.52 89.48 21.34L89.48 21.34ZM109.50 14.55L109.50 26L104.81 26L104.81 15.71Q104.81 13.57 103.98 12.52Q103.16 11.47 101.72 11.47L101.72 11.47Q100.88 11.47 99.94 11.96Q99.00 12.45 98.24 13.31Q97.49 14.17 97.14 15.29L97.14 15.29L97.14 26L92.45 26L92.45 0.45L97.14 0.45L97.14 11.05Q98.16 9.30 99.91 8.32Q101.66 7.34 103.72 7.34L103.72 7.34Q105.50 7.34 106.63 7.96Q107.75 8.57 108.38 9.60Q109.00 10.63 109.25 11.91Q109.50 13.19 109.50 14.55L109.50 14.55Z"/></g>
        <defs xmlns="http://www.w3.org/2000/svg">
<linearGradient id="paint0_linear_7697_8782" x1="20" y1="-0.997096" x2="20" y2="33.7931" gradientUnits="userSpaceOnUse">
<stop stop-color="0F0F0F"/>
<stop offset="1" stop-color="#444444"/>
</linearGradient>
<linearGradient id="paint1_linear_7697_8782" x1="20" y1="-0.997096" x2="20" y2="33.7931" gradientUnits="userSpaceOnUse">
<stop stop-color="#444444"/>
<stop offset="1" stop-color="#FFFFFF"/>
</linearGradient>
</defs>
      </svg>
    