<svg data-logo="logo" xmlns="http://www.w3.org/2000/svg" viewBox="0 0 149 42">
        <g style="opacity: 1;" id="logogram" transform="translate(0, 1) rotate(0)"><path d="M24 0H16V12.0632C15.9663 14.2434 14.1885 16 12.0005 16H0V24H8.68629C10.808 24 12.8429 23.1571 14.3431 21.6569L21.6569 14.3431C23.1571 12.8429 24 10.808 24 8.68629V0Z" fill="url(#paint0_linear_7697_8782)"></path><path d="M16 40H24V27.9368C24.0337 25.7566 25.8115 24 27.9995 24H40V16H31.3137C29.192 16 27.1571 16.8429 25.6569 18.3431L18.3431 25.6569C16.8429 27.1571 16 29.192 16 31.3137V40Z" fill="url(#paint1_linear_7697_8782)"></path></g>
        <g style="opacity: 1;" id="logotype" transform="translate(46, 7.5)"><path fill="1e293b" d="M27.33 27L7.97 27L7.97 23.87L18.29 9.29Q19.24 7.96 20.39 6.62Q21.53 5.28 22.70 3.96L22.70 3.96L23.09 5.65Q21.38 5.81 19.66 5.83Q17.95 5.86 16.24 5.86L16.24 5.86L7.91 5.86L7.91 1.54L27.28 1.54L27.28 4.68L17.14 19.00Q16.13 20.40 14.95 21.80Q13.76 23.19 12.55 24.57L12.55 24.57L12.15 22.88Q13.95 22.73 15.73 22.70Q17.52 22.68 19.30 22.68L19.30 22.68L27.33 22.68L27.33 27ZM37.79 27.38L37.79 27.38Q34.86 27.38 32.74 26.18Q30.62 24.98 29.49 22.78Q28.35 20.57 28.35 17.55L28.35 17.55Q28.35 14.59 29.48 12.37Q30.61 10.15 32.68 8.90Q34.74 7.65 37.53 7.65L37.53 7.65Q39.41 7.65 41.03 8.25Q42.66 8.85 43.89 10.06Q45.12 11.26 45.81 13.07Q46.50 14.88 46.50 17.34L46.50 17.34L46.50 18.78L30.45 18.78L30.45 15.57L43.99 15.57L41.60 16.42Q41.60 14.93 41.14 13.83Q40.69 12.73 39.79 12.12Q38.90 11.52 37.56 11.52L37.56 11.52Q36.25 11.52 35.32 12.13Q34.38 12.75 33.91 13.80Q33.43 14.85 33.43 16.20L33.43 16.20L33.43 18.47Q33.43 20.13 33.98 21.26Q34.54 22.39 35.54 22.95Q36.54 23.51 37.87 23.51L37.87 23.51Q38.78 23.51 39.51 23.26Q40.25 23.00 40.77 22.50Q41.29 21.99 41.56 21.26L41.56 21.26L46.21 22.13Q45.75 23.70 44.60 24.89Q43.46 26.08 41.74 26.73Q40.02 27.38 37.79 27.38ZM52.86 15.94L52.86 15.94L52.86 27L47.73 27L47.73 7.89L52.57 7.89L52.65 12.66L52.34 12.66Q53.10 10.27 54.63 8.96Q56.15 7.65 58.58 7.65L58.58 7.65Q60.56 7.65 62.03 8.52Q63.50 9.38 64.32 11.00Q65.14 12.61 65.14 14.85L65.14 14.85L65.14 27L60.02 27L60.02 15.74Q60.02 13.96 59.10 12.95Q58.19 11.94 56.56 11.94L56.56 11.94Q55.49 11.94 54.64 12.41Q53.80 12.88 53.33 13.77Q52.86 14.66 52.86 15.94ZM72.37 27L67.24 27L67.24 7.89L72.37 7.89L72.37 27ZM69.81 5.40L69.81 5.40Q68.65 5.40 67.82 4.63Q67.00 3.86 67.00 2.77L67.00 2.77Q67.00 1.67 67.82 0.90Q68.65 0.13 69.81 0.13L69.81 0.13Q70.97 0.13 71.80 0.90Q72.63 1.66 72.63 2.77L72.63 2.77Q72.63 3.86 71.80 4.63Q70.97 5.40 69.81 5.40ZM72.61 7.89L83.94 7.89L83.94 11.81L72.61 11.81L72.61 7.89ZM75.24 21.86L75.24 3.35L80.37 3.35L80.37 21.41Q80.37 22.32 80.77 22.75Q81.17 23.19 82.11 23.19L82.11 23.19Q82.40 23.19 82.93 23.11Q83.46 23.04 83.73 22.97L83.73 22.97L84.47 26.81Q83.61 27.07 82.77 27.17Q81.92 27.27 81.15 27.27L81.15 27.27Q78.28 27.27 76.76 25.87Q75.24 24.47 75.24 21.86L75.24 21.86ZM90.12 15.94L90.12 15.94L90.12 27L85.00 27L85.00 1.54L90.02 1.54L90.02 12.66L89.61 12.66Q90.36 10.27 91.89 8.96Q93.42 7.65 95.85 7.65L95.85 7.65Q97.83 7.65 99.31 8.52Q100.79 9.38 101.60 11.00Q102.41 12.61 102.41 14.85L102.41 14.85L102.41 27L97.28 27L97.28 15.74Q97.28 13.96 96.37 12.95Q95.46 11.94 93.83 11.94L93.83 11.94Q92.75 11.94 91.91 12.41Q91.06 12.88 90.59 13.77Q90.12 14.66 90.12 15.94Z"></path></g>
        <defs xmlns="http://www.w3.org/2000/svg">
<linearGradient id="paint0_linear_7697_8782" x1="20" y1="-0.997096" x2="20" y2="33.7931" gradientUnits="userSpaceOnUse">
<stop stop-color="#22C55E"></stop>
<stop offset="1" stop-color="#0EA5E9"></stop>
</linearGradient>
<linearGradient id="paint1_linear_7697_8782" x1="20" y1="-0.997096" x2="20" y2="33.7931" gradientUnits="userSpaceOnUse">
<stop stop-color="#22C55E"></stop>
<stop offset="1" stop-color="#F97316"></stop>
</linearGradient>
</defs>
      </svg>